<?xml version="1.0" encoding="UTF-8" standalone="no"?>
<!-- Created with Inkscape (http://www.inkscape.org/) -->
<svg id="svg2" xmlns:rdf="http://www.w3.org/1999/02/22-rdf-syntax-ns#" xmlns="http://www.w3.org/2000/svg" height="135.39mm" width="150.44mm" version="1.1" xmlns:cc="http://creativecommons.org/ns#" xmlns:dc="http://purl.org/dc/elements/1.1/" viewBox="0 0 533.05972 479.72407">
 <metadata id="metadata7">
  <rdf:RDF>
   <cc:Work rdf:about="">
    <dc:format>image/svg+xml</dc:format>
    <dc:type rdf:resource="http://purl.org/dc/dcmitype/StillImage"/>
    <dc:title/>
   </cc:Work>
  </rdf:RDF>
 </metadata>
 <g id="layer1" transform="translate(-119.18 -270.09)">
  <path id="path3358" fill="#00f" d="m184.71 270.09-65.529 75.858 75.849 65.522a214.8 214.8 0 0 1 65.589 -75.806l-75.91-65.57zm75.909 65.573 315.77 272.77a214.8 214.8 0 0 0 24.13 -98.47 214.8 214.8 0 0 0 -214.81 -214.81 214.8 214.8 0 0 0 -125.09 40.52zm315.77 272.77a214.8 214.8 0 0 1 -65.58 75.82l75.908 65.572 65.529-75.858-75.849-65.52zm-65.58 75.82-315.78-272.78a214.8 214.8 0 0 0 -24.12 98.49 214.8 214.8 0 0 0 214.8 214.8 214.8 214.8 0 0 0 125.1 -40.51z"/>
 </g>
</svg>
